<svg width="20" height="20" viewBox="0 0 20 20" fill="none" xmlns="http://www.w3.org/2000/svg">
<g clip-path="url(#clip0_4_1018)">
<path d="M19.9985 9.99923C19.9985 4.4768 15.5217 0 9.99923 0C4.4768 0 0 4.4768 0 9.99923C0 14.9901 3.65657 19.1268 8.43685 19.877V12.8896H5.89798V9.99923H8.43685V7.79627C8.43685 5.29022 9.92966 3.90595 12.2137 3.90595C13.3077 3.90595 14.452 4.10125 14.452 4.10125V6.56199H13.1911C11.949 6.56199 11.5616 7.33277 11.5616 8.12353V9.99923H14.3348L13.8915 12.8896H11.5616V19.877C16.3419 19.1268 19.9985 14.9901 19.9985 9.99923Z" fill="#212121"/>
<path d="M13.8913 12.8899L14.3347 9.99953H11.5615V8.12383C11.5615 7.33308 11.9488 6.56229 13.191 6.56229H14.4519V4.10155C14.4519 4.10155 13.3075 3.90625 12.2136 3.90625C9.92951 3.90625 8.43669 5.29052 8.43669 7.79657V9.99953H5.89783V12.8899H8.43669V19.8773C8.94578 19.9572 9.46755 19.9988 9.99907 19.9988C10.5306 19.9988 11.0524 19.9572 11.5615 19.8773V12.8899H13.8913Z" fill="white"/>
</g>
<defs>
<clipPath id="clip0_4_1018">
<rect width="20" height="20" fill="white"/>
</clipPath>
</defs>
</svg>
