<svg width="21" height="21" viewBox="0 0 21 21" fill="none" xmlns="http://www.w3.org/2000/svg">
<path d="M20.4255 10.6883C20.4255 9.86895 20.359 9.27101 20.2151 8.65094H10.8584V12.3492H16.3506C16.2399 13.2683 15.6419 14.6524 14.3132 15.5825L14.2945 15.7063L17.2529 17.9982L17.4579 18.0186C19.3403 16.2802 20.4255 13.7223 20.4255 10.6883Z" fill="#4285F4"/>
<path d="M10.8606 20.4316C13.5513 20.4316 15.8102 19.5457 17.4601 18.0176L14.3154 15.5815C13.4738 16.1684 12.3444 16.5781 10.8606 16.5781C8.22526 16.5781 5.98853 14.8397 5.1912 12.4368L5.07432 12.4467L1.99812 14.8274L1.95789 14.9393C3.59668 18.1947 6.96289 20.4316 10.8606 20.4316Z" fill="#34A853"/>
<path d="M5.19152 12.4377C4.98114 11.8176 4.85939 11.1532 4.85939 10.4668C4.85939 9.78018 4.98114 9.11583 5.18045 8.49575L5.17488 8.36369L2.06015 5.94476L1.95824 5.99323C1.28282 7.34415 0.895264 8.86117 0.895264 10.4668C0.895264 12.0723 1.28282 13.5892 1.95824 14.9402L5.19152 12.4377Z" fill="#FBBC05"/>
<path d="M10.8606 4.35336C12.7319 4.35336 13.9942 5.16168 14.7139 5.83718L17.5264 3.09107C15.7991 1.4855 13.5513 0.5 10.8606 0.5C6.96285 0.5 3.59667 2.73672 1.95789 5.99214L5.18011 8.49466C5.9885 6.09183 8.22522 4.35336 10.8606 4.35336Z" fill="#EB4335"/>
</svg>
