<svg width="20" height="20" viewBox="0 0 20 20" fill="none" xmlns="http://www.w3.org/2000/svg">
<g clip-path="url(#clip0_4_1022)">
<path d="M9.99687 0.00500488C7.28187 0.00500488 6.94143 0.0165128 5.87516 0.0651637C4.81111 0.113735 4.08441 0.282703 3.44849 0.529847C2.79111 0.785323 2.23361 1.12715 1.67786 1.6829C1.1221 2.23866 0.780278 2.79616 0.524802 3.45354C0.277659 4.08941 0.108691 4.81612 0.0601191 5.88017C0.0114683 6.94644 0 7.28688 0 10.0019C0 12.7168 0.0114683 13.0573 0.0601191 14.1235C0.108691 15.1876 0.277659 15.9143 0.524802 16.5502C0.780278 17.2076 1.1221 17.7651 1.67786 18.3209C2.23361 18.8766 2.79111 19.2184 3.44849 19.4739C4.08441 19.721 4.81111 19.89 5.87516 19.9386C6.94143 19.9872 7.28187 19.9987 9.99687 19.9987C12.7118 19.9987 13.0523 19.9872 14.1185 19.9386C15.1826 19.89 15.9093 19.721 16.5452 19.4739C17.2026 19.2184 17.7601 18.8766 18.3158 18.3209C18.8716 17.7651 19.2134 17.2076 19.4689 16.5502C19.716 15.9143 19.885 15.1876 19.9335 14.1235C19.9822 13.0573 19.9937 12.7168 19.9937 10.0019C19.9937 7.28688 19.9822 6.94644 19.9335 5.88017C19.885 4.81612 19.716 4.08941 19.4689 3.45354C19.2134 2.79616 18.8716 2.23866 18.3158 1.6829C17.7601 1.12715 17.2026 0.785323 16.5452 0.529847C15.9093 0.282703 15.1826 0.113735 14.1185 0.0651637C13.0523 0.0165128 12.7118 0.00500488 9.99687 0.00500488ZM9.99687 1.80628C12.6661 1.80628 12.9823 1.81643 14.0364 1.86453C15.0111 1.90901 15.5404 2.07187 15.8927 2.20874C16.3593 2.39009 16.6924 2.60675 17.0422 2.95656C17.392 3.30636 17.6086 3.63941 17.79 4.106C17.9269 4.45826 18.0897 4.98759 18.1342 5.96227C18.1823 7.0164 18.1925 7.33259 18.1925 10.0019C18.1925 12.6711 18.1823 12.9873 18.1342 14.0414C18.0897 15.0161 17.9269 15.5455 17.79 15.8977C17.6086 16.3643 17.392 16.6974 17.0422 17.0472C16.6924 17.397 16.3593 17.6136 15.8927 17.795C15.5404 17.9319 15.0111 18.0947 14.0364 18.1392C12.9825 18.1873 12.6663 18.1975 9.99687 18.1975C7.32739 18.1975 7.01128 18.1873 5.95727 18.1392C4.98258 18.0947 4.45326 17.9319 4.101 17.795C3.63437 17.6136 3.30135 17.397 2.95151 17.0472C2.60171 16.6974 2.38504 16.3643 2.20373 15.8977C2.06683 15.5455 1.90397 15.0161 1.85949 14.0414C1.81139 12.9873 1.80123 12.6711 1.80123 10.0019C1.80123 7.33259 1.81139 7.0164 1.85949 5.96227C1.90397 4.98759 2.06683 4.45826 2.20373 4.106C2.38504 3.63941 2.60171 3.30636 2.95151 2.95656C3.30135 2.60675 3.63437 2.39009 4.101 2.20874C4.45326 2.07187 4.98258 1.90901 5.95727 1.86453C7.01139 1.81643 7.32759 1.80628 9.99687 1.80628Z" fill="#212121"/>
<path d="M9.99682 13.3341C8.15642 13.3341 6.66451 11.8422 6.66451 10.0018C6.66451 8.16142 8.15642 6.66952 9.99682 6.66952C11.8372 6.66952 13.3291 8.16142 13.3291 10.0018C13.3291 11.8422 11.8372 13.3341 9.99682 13.3341ZM9.99682 4.86829C7.16162 4.86829 4.86328 7.16662 4.86328 10.0018C4.86328 12.837 7.16162 15.1353 9.99682 15.1353C12.832 15.1353 15.1303 12.837 15.1303 10.0018C15.1303 7.16662 12.832 4.86829 9.99682 4.86829Z" fill="#212121"/>
<path d="M16.5325 4.66652C16.5325 5.32906 15.9954 5.86613 15.3329 5.86613C14.6704 5.86613 14.1333 5.32906 14.1333 4.66652C14.1333 4.00398 14.6704 3.46692 15.3329 3.46692C15.9954 3.46692 16.5325 4.00398 16.5325 4.66652Z" fill="#212121"/>
</g>
<defs>
<clipPath id="clip0_4_1022">
<rect width="20" height="20" fill="white"/>
</clipPath>
</defs>
</svg>
