<svg width="21" height="20" viewBox="0 0 21 20" fill="none" xmlns="http://www.w3.org/2000/svg">
<g clip-path="url(#clip0_4_1030)">
<path d="M10.8317 0C5.33691 0 0.882324 4.45438 0.882324 9.94917C0.882324 14.1644 3.50482 17.7677 7.20607 19.2173C7.11899 18.43 7.04045 17.2194 7.24045 16.36C7.42107 15.5835 8.40711 11.4146 8.40711 11.4146C8.40711 11.4146 8.10962 10.8185 8.10962 9.9375C8.10962 8.55396 8.91128 7.52125 9.90962 7.52125C10.7584 7.52125 11.1686 8.15854 11.1686 8.92271C11.1686 9.77625 10.625 11.0525 10.3446 12.2354C10.11 13.2256 10.8413 14.0331 11.8177 14.0331C13.5863 14.0331 14.9454 12.1688 14.9454 9.47708C14.9454 7.095 13.2338 5.42937 10.7896 5.42937C7.95878 5.42937 6.29712 7.55271 6.29712 9.74708C6.29712 10.6023 6.62649 11.5192 7.03753 12.0177C7.11878 12.1163 7.13066 12.2025 7.10649 12.3029C7.03107 12.6173 6.86316 13.2929 6.83024 13.4313C6.78691 13.6133 6.68607 13.6521 6.49753 13.5644C5.25482 12.986 4.47795 11.1694 4.47795 9.71C4.47795 6.57146 6.75816 3.68917 11.0519 3.68917C14.5032 3.68917 17.1854 6.14875 17.1854 9.43542C17.1854 12.8644 15.0234 15.624 12.0225 15.624C11.0144 15.624 10.0665 15.1002 9.74232 14.4815C9.74232 14.4815 9.24337 16.381 9.12232 16.8467C8.89774 17.7108 8.29149 18.794 7.88566 19.4548C8.8167 19.7431 9.80587 19.8985 10.8317 19.8985C16.3265 19.8985 20.7809 15.444 20.7809 9.94917C20.7809 4.45438 16.3265 0 10.8317 0Z" fill="#212121"/>
</g>
<defs>
<clipPath id="clip0_4_1030">
<rect width="20" height="20" fill="white" transform="translate(0.882324)"/>
</clipPath>
</defs>
</svg>
