<svg width="22" height="18" viewBox="0 0 22 18" fill="none" xmlns="http://www.w3.org/2000/svg">
<g clip-path="url(#clip0_4_1027)">
<path d="M19.5838 4.52567C19.5971 4.71714 19.5971 4.90861 19.5971 5.10185C19.5971 10.9898 15.1147 17.7804 6.91855 17.7804V17.7768C4.49738 17.7804 2.12649 17.0868 0.0882568 15.7792C0.440316 15.8216 0.794139 15.8427 1.14885 15.8436C3.15532 15.8454 5.10443 15.1721 6.68296 13.9324C4.7762 13.8963 3.10414 12.653 2.52002 10.838C3.18796 10.9668 3.8762 10.9404 4.53179 10.7613C2.45296 10.3413 0.957375 8.51479 0.957375 6.39361C0.957375 6.3742 0.957375 6.35567 0.957375 6.33714C1.57679 6.68214 2.27032 6.87361 2.97973 6.89479C1.02179 5.58626 0.418257 2.98155 1.60061 0.945081C3.86296 3.7289 7.2009 5.42126 10.7841 5.60038C10.425 4.05273 10.9156 2.43096 12.0733 1.34302C13.868 -0.344037 16.6906 -0.257566 18.3777 1.53626C19.3756 1.33949 20.3321 0.973316 21.2074 0.454493C20.8747 1.48596 20.1786 2.36214 19.2486 2.9189C20.1318 2.81479 20.9947 2.57832 21.8074 2.21743C21.2091 3.1139 20.4556 3.89479 19.5838 4.52567Z" fill="#212121"/>
</g>
<defs>
<clipPath id="clip0_4_1027">
<rect width="21.8824" height="18" fill="white"/>
</clipPath>
</defs>
</svg>
